<svg width="117" height="115" viewBox="0 0 117 115" fill="none" xmlns="http://www.w3.org/2000/svg">
<path d="M58.1 39.03C58.1 42.81 57.12 46.1233 55.16 48.97H55.23L39.97 72H28.91L39.83 56.04C34.7433 55.9467 30.59 54.3367 27.37 51.21C24.1967 48.0367 22.61 43.9767 22.61 39.03C22.61 34.0367 24.2433 29.9533 27.51 26.78C30.8233 23.6067 35.0933 22.02 40.32 22.02C45.5933 22.02 49.8633 23.6067 53.13 26.78C56.4433 29.9067 58.1 33.99 58.1 39.03ZM32.2 39.03C32.2 41.4567 32.97 43.3933 34.51 44.84C36.0967 46.2867 38.0333 47.01 40.32 47.01C42.7 47.01 44.66 46.2867 46.2 44.84C47.74 43.3933 48.51 41.4567 48.51 39.03C48.51 36.6033 47.74 34.69 46.2 33.29C44.66 31.8433 42.7 31.12 40.32 31.12C38.0333 31.12 36.0967 31.8433 34.51 33.29C32.97 34.7367 32.2 36.65 32.2 39.03ZM76.557 40.85C81.2704 40.85 85.237 42.2733 88.457 45.12C91.677 47.92 93.287 51.84 93.287 56.88C93.287 61.92 91.5837 65.8633 88.177 68.71C84.817 71.5567 80.687 72.98 75.787 72.98C71.8204 72.98 68.3204 72.0933 65.287 70.32C62.2537 68.5467 60.0604 65.9333 58.707 62.48L66.967 57.65C68.1804 61.57 71.1204 63.53 75.787 63.53C78.2604 63.53 80.1737 62.9467 81.527 61.78C82.927 60.5667 83.627 58.9333 83.627 56.88C83.627 54.8733 82.9504 53.2633 81.597 52.05C80.2437 50.8367 78.4004 50.23 76.067 50.23H61.227L63.187 23H90.977V32.03H72.147L71.517 40.85H76.557Z" fill="#666666"/>
<path d="M8.73 93.4H10.8V106H8.73V100.546H3.33V106H1.26V93.4H3.33V98.566H8.73V93.4ZM20.3206 97H22.2646V106H20.3206V104.704C19.5886 105.724 18.5386 106.234 17.1706 106.234C15.9346 106.234 14.8786 105.778 14.0026 104.866C13.1266 103.942 12.6886 102.82 12.6886 101.5C12.6886 100.168 13.1266 99.046 14.0026 98.134C14.8786 97.222 15.9346 96.766 17.1706 96.766C18.5386 96.766 19.5886 97.27 20.3206 98.278V97ZM15.4426 103.57C15.9826 104.11 16.6606 104.38 17.4766 104.38C18.2926 104.38 18.9706 104.11 19.5106 103.57C20.0506 103.018 20.3206 102.328 20.3206 101.5C20.3206 100.672 20.0506 99.988 19.5106 99.448C18.9706 98.896 18.2926 98.62 17.4766 98.62C16.6606 98.62 15.9826 98.896 15.4426 99.448C14.9026 99.988 14.6326 100.672 14.6326 101.5C14.6326 102.328 14.9026 103.018 15.4426 103.57ZM29.6245 96.766C30.8605 96.766 31.9165 97.228 32.7925 98.152C33.6685 99.064 34.1065 100.18 34.1065 101.5C34.1065 102.832 33.6685 103.954 32.7925 104.866C31.9165 105.778 30.8605 106.234 29.6245 106.234C28.2565 106.234 27.2065 105.73 26.4745 104.722V109.6H24.5305V97H26.4745V98.296C27.2065 97.276 28.2565 96.766 29.6245 96.766ZM27.2845 103.57C27.8245 104.11 28.5025 104.38 29.3185 104.38C30.1345 104.38 30.8125 104.11 31.3525 103.57C31.8925 103.018 32.1625 102.328 32.1625 101.5C32.1625 100.672 31.8925 99.988 31.3525 99.448C30.8125 98.896 30.1345 98.62 29.3185 98.62C28.5025 98.62 27.8245 98.896 27.2845 99.448C26.7445 99.988 26.4745 100.672 26.4745 101.5C26.4745 102.328 26.7445 103.018 27.2845 103.57ZM40.9624 96.766C42.1984 96.766 43.2544 97.228 44.1304 98.152C45.0064 99.064 45.4444 100.18 45.4444 101.5C45.4444 102.832 45.0064 103.954 44.1304 104.866C43.2544 105.778 42.1984 106.234 40.9624 106.234C39.5944 106.234 38.5444 105.73 37.8124 104.722V109.6H35.8684V97H37.8124V98.296C38.5444 97.276 39.5944 96.766 40.9624 96.766ZM38.6224 103.57C39.1624 104.11 39.8404 104.38 40.6564 104.38C41.4724 104.38 42.1504 104.11 42.6904 103.57C43.2304 103.018 43.5004 102.328 43.5004 101.5C43.5004 100.672 43.2304 99.988 42.6904 99.448C42.1504 98.896 41.4724 98.62 40.6564 98.62C39.8404 98.62 39.1624 98.896 38.6224 99.448C38.0824 99.988 37.8124 100.672 37.8124 101.5C37.8124 102.328 38.0824 103.018 38.6224 103.57ZM52.9207 97H54.9907L51.5347 106.288C50.6707 108.616 49.2067 109.72 47.1427 109.6V107.782C47.7547 107.818 48.2467 107.686 48.6187 107.386C48.9907 107.098 49.2967 106.642 49.5367 106.018L49.6267 105.838L45.8107 97H47.9347L50.6167 103.534L52.9207 97ZM66.7903 106.234C64.8943 106.234 63.3223 105.61 62.0743 104.362C60.8263 103.102 60.2023 101.548 60.2023 99.7C60.2023 97.852 60.8263 96.304 62.0743 95.056C63.3223 93.796 64.8943 93.166 66.7903 93.166C67.9303 93.166 68.9803 93.436 69.9403 93.976C70.9123 94.516 71.6683 95.248 72.2083 96.172L70.4083 97.216C70.0723 96.592 69.5803 96.1 68.9323 95.74C68.2963 95.368 67.5823 95.182 66.7903 95.182C65.4463 95.182 64.3543 95.608 63.5143 96.46C62.6863 97.312 62.2723 98.392 62.2723 99.7C62.2723 101.008 62.6863 102.088 63.5143 102.94C64.3543 103.792 65.4463 104.218 66.7903 104.218C67.5823 104.218 68.3023 104.038 68.9503 103.678C69.5983 103.306 70.0843 102.808 70.4083 102.184L72.2083 103.21C71.6803 104.134 70.9303 104.872 69.9583 105.424C68.9983 105.964 67.9423 106.234 66.7903 106.234ZM73.8899 106V92.86H75.8339V106H73.8899ZM79.927 95.29C79.687 95.53 79.399 95.65 79.063 95.65C78.727 95.65 78.433 95.53 78.181 95.29C77.941 95.038 77.821 94.744 77.821 94.408C77.821 94.072 77.941 93.784 78.181 93.544C78.421 93.292 78.715 93.166 79.063 93.166C79.411 93.166 79.705 93.292 79.945 93.544C80.185 93.784 80.305 94.072 80.305 94.408C80.305 94.744 80.179 95.038 79.927 95.29ZM78.091 106V97H80.035V106H78.091ZM83.8222 102.328C83.9662 103.012 84.2962 103.54 84.8122 103.912C85.3282 104.272 85.9582 104.452 86.7022 104.452C87.7342 104.452 88.5082 104.08 89.0242 103.336L90.6262 104.272C89.7382 105.58 88.4242 106.234 86.6842 106.234C85.2202 106.234 84.0382 105.79 83.1382 104.902C82.2382 104.002 81.7882 102.868 81.7882 101.5C81.7882 100.156 82.2322 99.034 83.1202 98.134C84.0082 97.222 85.1482 96.766 86.5402 96.766C87.8602 96.766 88.9402 97.228 89.7802 98.152C90.6322 99.076 91.0582 100.198 91.0582 101.518C91.0582 101.722 91.0342 101.992 90.9862 102.328H83.8222ZM83.8042 100.744H89.0962C88.9642 100.012 88.6582 99.46 88.1782 99.088C87.7102 98.716 87.1582 98.53 86.5222 98.53C85.8022 98.53 85.2022 98.728 84.7222 99.124C84.2422 99.52 83.9362 100.06 83.8042 100.744ZM97.5028 96.766C98.5348 96.766 99.3688 97.096 100.005 97.756C100.641 98.416 100.959 99.322 100.959 100.474V106H99.0148V100.672C99.0148 100 98.8348 99.484 98.4748 99.124C98.1148 98.764 97.6228 98.584 96.9988 98.584C96.3148 98.584 95.7628 98.8 95.3428 99.232C94.9228 99.652 94.7128 100.3 94.7128 101.176V106H92.7688V97H94.7128V98.152C95.3008 97.228 96.2308 96.766 97.5028 96.766ZM108.074 98.872H105.842V103.192C105.842 103.564 105.926 103.834 106.094 104.002C106.262 104.158 106.508 104.248 106.832 104.272C107.168 104.284 107.582 104.278 108.074 104.254V106C106.586 106.18 105.518 106.054 104.87 105.622C104.222 105.178 103.898 104.368 103.898 103.192V98.872H102.242V97H103.898V95.056L105.842 94.48V97H108.074V98.872ZM111.249 99.484C111.249 99.784 111.411 100.024 111.735 100.204C112.071 100.372 112.473 100.522 112.941 100.654C113.421 100.774 113.901 100.918 114.381 101.086C114.861 101.254 115.263 101.542 115.587 101.95C115.923 102.346 116.091 102.85 116.091 103.462C116.091 104.326 115.755 105.004 115.083 105.496C114.423 105.988 113.589 106.234 112.581 106.234C111.693 106.234 110.931 106.048 110.295 105.676C109.659 105.304 109.197 104.788 108.909 104.128L110.583 103.156C110.895 104.02 111.561 104.452 112.581 104.452C113.601 104.452 114.111 104.116 114.111 103.444C114.111 103.156 113.943 102.922 113.607 102.742C113.283 102.562 112.881 102.412 112.401 102.292C111.933 102.16 111.459 102.01 110.979 101.842C110.499 101.674 110.091 101.398 109.755 101.014C109.431 100.618 109.269 100.12 109.269 99.52C109.269 98.692 109.581 98.026 110.205 97.522C110.841 97.018 111.627 96.766 112.563 96.766C113.307 96.766 113.967 96.934 114.543 97.27C115.131 97.594 115.581 98.05 115.893 98.638L114.255 99.556C113.943 98.872 113.379 98.53 112.563 98.53C112.191 98.53 111.879 98.614 111.627 98.782C111.375 98.938 111.249 99.172 111.249 99.484Z" fill="#666666"/>
</svg>
