<svg width="108" height="115" viewBox="0 0 108 115" fill="none" xmlns="http://www.w3.org/2000/svg">
<path d="M21.65 23H30.05V72H20.39V33.22L11.15 35.81L8.77 27.55L21.65 23ZM48.7203 23H57.1203V72H47.4603V33.22L38.2203 35.81L35.8403 27.55L48.7203 23ZM81.7406 40.85C86.454 40.85 90.4206 42.2733 93.6406 45.12C96.8606 47.92 98.4706 51.84 98.4706 56.88C98.4706 61.92 96.7673 65.8633 93.3606 68.71C90.0006 71.5567 85.8706 72.98 80.9706 72.98C77.004 72.98 73.504 72.0933 70.4706 70.32C67.4373 68.5467 65.244 65.9333 63.8906 62.48L72.1506 57.65C73.364 61.57 76.304 63.53 80.9706 63.53C83.444 63.53 85.3573 62.9467 86.7106 61.78C88.1106 60.5667 88.8106 58.9333 88.8106 56.88C88.8106 54.8733 88.134 53.2633 86.7806 52.05C85.4273 50.8367 83.584 50.23 81.2506 50.23H66.4106L68.3706 23H96.1606V32.03H77.3306L76.7006 40.85H81.7406Z" fill="#666666"/>
<path d="M5.904 93.4C7.092 93.4 8.082 93.796 8.874 94.588C9.678 95.38 10.08 96.364 10.08 97.54C10.08 98.704 9.678 99.688 8.874 100.492C8.082 101.284 7.092 101.68 5.904 101.68H3.33V106H1.26V93.4H5.904ZM5.904 99.736C6.516 99.736 7.02 99.532 7.416 99.124C7.812 98.704 8.01 98.176 8.01 97.54C8.01 96.904 7.812 96.382 7.416 95.974C7.02 95.554 6.516 95.344 5.904 95.344H3.33V99.736H5.904ZM13.5194 98.512C14.0114 97.396 14.9354 96.838 16.2914 96.838V98.944C15.5474 98.896 14.8994 99.076 14.3474 99.484C13.7954 99.88 13.5194 100.54 13.5194 101.464V106H11.5754V97H13.5194V98.512ZM21.5539 106.234C20.2339 106.234 19.1119 105.778 18.1879 104.866C17.2639 103.954 16.8019 102.832 16.8019 101.5C16.8019 100.168 17.2639 99.046 18.1879 98.134C19.1119 97.222 20.2339 96.766 21.5539 96.766C22.8859 96.766 24.0079 97.222 24.9199 98.134C25.8439 99.046 26.3059 100.168 26.3059 101.5C26.3059 102.832 25.8439 103.954 24.9199 104.866C24.0079 105.778 22.8859 106.234 21.5539 106.234ZM19.5559 103.534C20.0959 104.074 20.7619 104.344 21.5539 104.344C22.3459 104.344 23.0119 104.074 23.5519 103.534C24.0919 102.994 24.3619 102.316 24.3619 101.5C24.3619 100.684 24.0919 100.006 23.5519 99.466C23.0119 98.926 22.3459 98.656 21.5539 98.656C20.7619 98.656 20.0959 98.926 19.5559 99.466C19.0159 100.006 18.7459 100.684 18.7459 101.5C18.7459 102.316 19.0159 102.994 19.5559 103.534ZM29.9604 95.29C29.7204 95.53 29.4324 95.65 29.0964 95.65C28.7604 95.65 28.4664 95.53 28.2144 95.29C27.9744 95.038 27.8544 94.744 27.8544 94.408C27.8544 94.072 27.9744 93.784 28.2144 93.544C28.4664 93.292 28.7604 93.166 29.0964 93.166C29.4324 93.166 29.7204 93.292 29.9604 93.544C30.2124 93.784 30.3384 94.072 30.3384 94.408C30.3384 94.744 30.2124 95.038 29.9604 95.29ZM28.1244 106.36V97H30.0684V106.36C30.0684 108.856 28.8384 110.014 26.3784 109.834V107.962C26.9784 108.022 27.4164 107.926 27.6924 107.674C27.9804 107.422 28.1244 106.984 28.1244 106.36ZM33.8652 102.328C34.0092 103.012 34.3392 103.54 34.8552 103.912C35.3712 104.272 36.0012 104.452 36.7452 104.452C37.7772 104.452 38.5512 104.08 39.0672 103.336L40.6692 104.272C39.7812 105.58 38.4672 106.234 36.7272 106.234C35.2632 106.234 34.0812 105.79 33.1812 104.902C32.2812 104.002 31.8312 102.868 31.8312 101.5C31.8312 100.156 32.2752 99.034 33.1632 98.134C34.0512 97.222 35.1912 96.766 36.5832 96.766C37.9032 96.766 38.9832 97.228 39.8232 98.152C40.6752 99.076 41.1012 100.198 41.1012 101.518C41.1012 101.722 41.0772 101.992 41.0292 102.328H33.8652ZM33.8472 100.744H39.1392C39.0072 100.012 38.7012 99.46 38.2212 99.088C37.7532 98.716 37.2012 98.53 36.5652 98.53C35.8452 98.53 35.2452 98.728 34.7652 99.124C34.2852 99.52 33.9792 100.06 33.8472 100.744ZM47.007 106.234C45.651 106.234 44.517 105.778 43.605 104.866C42.705 103.954 42.255 102.832 42.255 101.5C42.255 100.156 42.705 99.034 43.605 98.134C44.517 97.222 45.651 96.766 47.007 96.766C47.883 96.766 48.681 96.976 49.401 97.396C50.121 97.816 50.661 98.38 51.021 99.088L49.347 100.06C49.143 99.628 48.831 99.292 48.411 99.052C48.003 98.8 47.529 98.674 46.989 98.674C46.197 98.674 45.531 98.944 44.991 99.484C44.463 100.024 44.199 100.696 44.199 101.5C44.199 102.304 44.463 102.976 44.991 103.516C45.531 104.056 46.197 104.326 46.989 104.326C47.517 104.326 47.991 104.2 48.411 103.948C48.843 103.696 49.167 103.36 49.383 102.94L51.057 103.894C50.673 104.614 50.121 105.184 49.401 105.604C48.681 106.024 47.883 106.234 47.007 106.234ZM57.4841 98.872H55.2521V103.192C55.2521 103.564 55.3361 103.834 55.5041 104.002C55.6721 104.158 55.9181 104.248 56.2421 104.272C56.5781 104.284 56.9921 104.278 57.4841 104.254V106C55.9961 106.18 54.9281 106.054 54.2801 105.622C53.6321 105.178 53.3081 104.368 53.3081 103.192V98.872H51.6521V97H53.3081V95.056L55.2521 94.48V97H57.4841V98.872ZM68.9112 93.4C70.6392 93.4 72.0732 94.006 73.2132 95.218C74.3652 96.43 74.9412 97.924 74.9412 99.7C74.9412 101.464 74.3652 102.958 73.2132 104.182C72.0732 105.394 70.6392 106 68.9112 106H63.9612V93.4H68.9112ZM68.9112 104.02C70.0992 104.02 71.0652 103.612 71.8092 102.796C72.5652 101.98 72.9432 100.948 72.9432 99.7C72.9432 98.44 72.5652 97.408 71.8092 96.604C71.0652 95.788 70.0992 95.38 68.9112 95.38H66.0312V104.02H68.9112ZM80.9504 106.234C79.6304 106.234 78.5084 105.778 77.5844 104.866C76.6604 103.954 76.1984 102.832 76.1984 101.5C76.1984 100.168 76.6604 99.046 77.5844 98.134C78.5084 97.222 79.6304 96.766 80.9504 96.766C82.2824 96.766 83.4044 97.222 84.3164 98.134C85.2404 99.046 85.7024 100.168 85.7024 101.5C85.7024 102.832 85.2404 103.954 84.3164 104.866C83.4044 105.778 82.2824 106.234 80.9504 106.234ZM78.9524 103.534C79.4924 104.074 80.1584 104.344 80.9504 104.344C81.7424 104.344 82.4084 104.074 82.9484 103.534C83.4884 102.994 83.7584 102.316 83.7584 101.5C83.7584 100.684 83.4884 100.006 82.9484 99.466C82.4084 98.926 81.7424 98.656 80.9504 98.656C80.1584 98.656 79.4924 98.926 78.9524 99.466C78.4124 100.006 78.1424 100.684 78.1424 101.5C78.1424 102.316 78.4124 102.994 78.9524 103.534ZM92.1942 96.766C93.2262 96.766 94.0602 97.096 94.6962 97.756C95.3322 98.416 95.6502 99.322 95.6502 100.474V106H93.7062V100.672C93.7062 100 93.5262 99.484 93.1662 99.124C92.8062 98.764 92.3142 98.584 91.6902 98.584C91.0062 98.584 90.4542 98.8 90.0342 99.232C89.6142 99.652 89.4042 100.3 89.4042 101.176V106H87.4602V97H89.4042V98.152C89.9922 97.228 90.9222 96.766 92.1942 96.766ZM99.2734 102.328C99.4174 103.012 99.7474 103.54 100.263 103.912C100.779 104.272 101.409 104.452 102.153 104.452C103.185 104.452 103.959 104.08 104.475 103.336L106.077 104.272C105.189 105.58 103.875 106.234 102.135 106.234C100.671 106.234 99.4894 105.79 98.5894 104.902C97.6894 104.002 97.2394 102.868 97.2394 101.5C97.2394 100.156 97.6834 99.034 98.5714 98.134C99.4594 97.222 100.599 96.766 101.991 96.766C103.311 96.766 104.391 97.228 105.231 98.152C106.083 99.076 106.509 100.198 106.509 101.518C106.509 101.722 106.485 101.992 106.437 102.328H99.2734ZM99.2554 100.744H104.547C104.415 100.012 104.109 99.46 103.629 99.088C103.161 98.716 102.609 98.53 101.973 98.53C101.253 98.53 100.653 98.728 100.173 99.124C99.6934 99.52 99.3874 100.06 99.2554 100.744Z" fill="#666666"/>
</svg>
