<svg width="156" height="115" viewBox="0 0 156 115" fill="none" xmlns="http://www.w3.org/2000/svg">
<path d="M69.66 46.52C74.1867 49.2267 76.45 53.17 76.45 58.35C76.45 62.8767 74.8633 66.4467 71.69 69.06C68.5633 71.6733 64.2933 72.98 58.88 72.98C53.42 72.98 49.1267 71.6733 46 69.06C42.8733 66.4467 41.31 62.8767 41.31 58.35C41.31 53.17 43.55 49.2267 48.03 46.52C44.6233 44.0467 42.92 40.6633 42.92 36.37C42.92 31.8433 44.4367 28.32 47.47 25.8C50.55 23.28 54.3533 22.02 58.88 22.02C63.4067 22.02 67.1867 23.28 70.22 25.8C73.2533 28.32 74.77 31.8433 74.77 36.37C74.77 40.71 73.0667 44.0933 69.66 46.52ZM63.43 32.66C62.2633 31.6333 60.7467 31.12 58.88 31.12C57.0133 31.12 55.4967 31.6333 54.33 32.66C53.1633 33.6867 52.58 35.0867 52.58 36.86C52.58 38.6333 53.1633 40.0567 54.33 41.13C55.4967 42.1567 57.0133 42.67 58.88 42.67C60.7467 42.67 62.2633 42.1567 63.43 41.13C64.5967 40.0567 65.18 38.6333 65.18 36.86C65.18 35.0867 64.5967 33.6867 63.43 32.66ZM53.07 62.13C54.5633 63.2967 56.5 63.88 58.88 63.88C61.26 63.88 63.1733 63.2967 64.62 62.13C66.1133 60.9167 66.86 59.2367 66.86 57.09C66.86 54.99 66.1133 53.3567 64.62 52.19C63.1733 50.9767 61.26 50.37 58.88 50.37C56.5 50.37 54.5633 50.9767 53.07 52.19C51.6233 53.3567 50.9 54.99 50.9 57.09C50.9 59.2367 51.6233 60.9167 53.07 62.13ZM113.995 43.23V51.7H102.445V63.25H93.9752V51.7H82.4952V43.23H93.9752V31.75H102.445V43.23H113.995Z" fill="#666666"/>
<path d="M10.944 93.4L6.552 100.996V106H4.482V100.996L0.09 93.4H2.448L5.526 98.98L8.586 93.4H10.944ZM11.9101 102.328C12.0541 103.012 12.3841 103.54 12.9001 103.912C13.4161 104.272 14.0461 104.452 14.7901 104.452C15.8221 104.452 16.5961 104.08 17.1121 103.336L18.7141 104.272C17.8261 105.58 16.5121 106.234 14.7721 106.234C13.3081 106.234 12.1261 105.79 11.2261 104.902C10.3261 104.002 9.87609 102.868 9.87609 101.5C9.87609 100.156 10.3201 99.034 11.2081 98.134C12.0961 97.222 13.2361 96.766 14.6281 96.766C15.9481 96.766 17.0281 97.228 17.8681 98.152C18.7201 99.076 19.1461 100.198 19.1461 101.518C19.1461 101.722 19.1221 101.992 19.0741 102.328H11.9101ZM11.8921 100.744H17.1841C17.0521 100.012 16.7461 99.46 16.2661 99.088C15.7981 98.716 15.2461 98.53 14.6101 98.53C13.8901 98.53 13.2901 98.728 12.8101 99.124C12.3301 99.52 12.0241 100.06 11.8921 100.744ZM27.9319 97H29.8759V106H27.9319V104.704C27.1999 105.724 26.1499 106.234 24.7819 106.234C23.5459 106.234 22.4899 105.778 21.6139 104.866C20.7379 103.942 20.2999 102.82 20.2999 101.5C20.2999 100.168 20.7379 99.046 21.6139 98.134C22.4899 97.222 23.5459 96.766 24.7819 96.766C26.1499 96.766 27.1999 97.27 27.9319 98.278V97ZM23.0539 103.57C23.5939 104.11 24.2719 104.38 25.0879 104.38C25.9039 104.38 26.5819 104.11 27.1219 103.57C27.6619 103.018 27.9319 102.328 27.9319 101.5C27.9319 100.672 27.6619 99.988 27.1219 99.448C26.5819 98.896 25.9039 98.62 25.0879 98.62C24.2719 98.62 23.5939 98.896 23.0539 99.448C22.5139 99.988 22.2439 100.672 22.2439 101.5C22.2439 102.328 22.5139 103.018 23.0539 103.57ZM34.0858 98.512C34.5778 97.396 35.5018 96.838 36.8578 96.838V98.944C36.1138 98.896 35.4658 99.076 34.9138 99.484C34.3618 99.88 34.0858 100.54 34.0858 101.464V106H32.1418V97H34.0858V98.512ZM39.7238 99.484C39.7238 99.784 39.8858 100.024 40.2098 100.204C40.5458 100.372 40.9478 100.522 41.4158 100.654C41.8958 100.774 42.3758 100.918 42.8558 101.086C43.3358 101.254 43.7378 101.542 44.0618 101.95C44.3978 102.346 44.5658 102.85 44.5658 103.462C44.5658 104.326 44.2298 105.004 43.5578 105.496C42.8978 105.988 42.0638 106.234 41.0558 106.234C40.1678 106.234 39.4058 106.048 38.7698 105.676C38.1338 105.304 37.6718 104.788 37.3838 104.128L39.0578 103.156C39.3698 104.02 40.0358 104.452 41.0558 104.452C42.0758 104.452 42.5858 104.116 42.5858 103.444C42.5858 103.156 42.4178 102.922 42.0818 102.742C41.7578 102.562 41.3558 102.412 40.8758 102.292C40.4078 102.16 39.9338 102.01 39.4538 101.842C38.9738 101.674 38.5658 101.398 38.2298 101.014C37.9058 100.618 37.7438 100.12 37.7438 99.52C37.7438 98.692 38.0558 98.026 38.6798 97.522C39.3158 97.018 40.1018 96.766 41.0378 96.766C41.7818 96.766 42.4418 96.934 43.0178 97.27C43.6058 97.594 44.0558 98.05 44.3678 98.638L42.7298 99.556C42.4178 98.872 41.8538 98.53 41.0378 98.53C40.6658 98.53 40.3538 98.614 40.1018 98.782C39.8498 98.938 39.7238 99.172 39.7238 99.484ZM61.4306 104.344C60.1706 105.604 58.6286 106.234 56.8046 106.234C54.9806 106.234 53.4326 105.604 52.1606 104.344C50.9006 103.072 50.2706 101.524 50.2706 99.7C50.2706 97.876 50.9006 96.334 52.1606 95.074C53.4326 93.802 54.9806 93.166 56.8046 93.166C58.6286 93.166 60.1706 93.802 61.4306 95.074C62.7026 96.334 63.3386 97.876 63.3386 99.7C63.3386 101.524 62.7026 103.072 61.4306 104.344ZM53.6186 102.94C54.4826 103.792 55.5446 104.218 56.8046 104.218C58.0646 104.218 59.1206 103.792 59.9726 102.94C60.8366 102.076 61.2686 100.996 61.2686 99.7C61.2686 98.404 60.8366 97.33 59.9726 96.478C59.1206 95.614 58.0646 95.182 56.8046 95.182C55.5446 95.182 54.4826 95.614 53.6186 96.478C52.7666 97.33 52.3406 98.404 52.3406 99.7C52.3406 100.996 52.7666 102.076 53.6186 102.94ZM69.8168 95.038C68.4008 94.906 67.6928 95.5 67.6928 96.82V97H69.8168V98.872H67.6928V106H65.7488V98.872H64.3808V97H65.7488V96.82C65.7488 95.584 66.0908 94.648 66.7748 94.012C67.4708 93.364 68.4848 93.082 69.8168 93.166V95.038ZM77.6503 104.02H83.2303V106H75.5803V93.4H83.1403V95.38H77.6503V98.656H82.6903V100.618H77.6503V104.02ZM93.0452 106H90.7952L88.5632 102.922L86.3132 106H84.0452L87.4292 101.374L84.2252 97H86.4752L88.5452 99.844L90.6152 97H92.8832L89.6792 101.392L93.0452 106ZM99.4448 96.766C100.681 96.766 101.737 97.228 102.613 98.152C103.489 99.064 103.927 100.18 103.927 101.5C103.927 102.832 103.489 103.954 102.613 104.866C101.737 105.778 100.681 106.234 99.4448 106.234C98.0768 106.234 97.0268 105.73 96.2948 104.722V109.6H94.3508V97H96.2948V98.296C97.0268 97.276 98.0768 96.766 99.4448 96.766ZM97.1048 103.57C97.6448 104.11 98.3228 104.38 99.1388 104.38C99.9548 104.38 100.633 104.11 101.173 103.57C101.713 103.018 101.983 102.328 101.983 101.5C101.983 100.672 101.713 99.988 101.173 99.448C100.633 98.896 99.9548 98.62 99.1388 98.62C98.3228 98.62 97.6448 98.896 97.1048 99.448C96.5648 99.988 96.2948 100.672 96.2948 101.5C96.2948 102.328 96.5648 103.018 97.1048 103.57ZM107.219 102.328C107.363 103.012 107.693 103.54 108.209 103.912C108.725 104.272 109.355 104.452 110.099 104.452C111.131 104.452 111.905 104.08 112.421 103.336L114.023 104.272C113.135 105.58 111.821 106.234 110.081 106.234C108.617 106.234 107.435 105.79 106.535 104.902C105.635 104.002 105.185 102.868 105.185 101.5C105.185 100.156 105.629 99.034 106.517 98.134C107.405 97.222 108.545 96.766 109.937 96.766C111.257 96.766 112.337 97.228 113.177 98.152C114.029 99.076 114.455 100.198 114.455 101.518C114.455 101.722 114.431 101.992 114.383 102.328H107.219ZM107.201 100.744H112.493C112.361 100.012 112.055 99.46 111.575 99.088C111.107 98.716 110.555 98.53 109.919 98.53C109.199 98.53 108.599 98.728 108.119 99.124C107.639 99.52 107.333 100.06 107.201 100.744ZM118.109 98.512C118.601 97.396 119.525 96.838 120.881 96.838V98.944C120.137 98.896 119.489 99.076 118.937 99.484C118.385 99.88 118.109 100.54 118.109 101.464V106H116.165V97H118.109V98.512ZM124.154 95.29C123.914 95.53 123.626 95.65 123.29 95.65C122.954 95.65 122.66 95.53 122.408 95.29C122.168 95.038 122.048 94.744 122.048 94.408C122.048 94.072 122.168 93.784 122.408 93.544C122.648 93.292 122.942 93.166 123.29 93.166C123.638 93.166 123.932 93.292 124.172 93.544C124.412 93.784 124.532 94.072 124.532 94.408C124.532 94.744 124.406 95.038 124.154 95.29ZM122.318 106V97H124.262V106H122.318ZM131.253 96.766C132.285 96.766 133.119 97.096 133.755 97.756C134.391 98.416 134.709 99.322 134.709 100.474V106H132.765V100.672C132.765 100 132.585 99.484 132.225 99.124C131.865 98.764 131.373 98.584 130.749 98.584C130.065 98.584 129.513 98.8 129.093 99.232C128.673 99.652 128.463 100.3 128.463 101.176V106H126.519V97H128.463V98.152C129.051 97.228 129.981 96.766 131.253 96.766ZM141.05 106.234C139.694 106.234 138.56 105.778 137.648 104.866C136.748 103.954 136.298 102.832 136.298 101.5C136.298 100.156 136.748 99.034 137.648 98.134C138.56 97.222 139.694 96.766 141.05 96.766C141.926 96.766 142.724 96.976 143.444 97.396C144.164 97.816 144.704 98.38 145.064 99.088L143.39 100.06C143.186 99.628 142.874 99.292 142.454 99.052C142.046 98.8 141.572 98.674 141.032 98.674C140.24 98.674 139.574 98.944 139.034 99.484C138.506 100.024 138.242 100.696 138.242 101.5C138.242 102.304 138.506 102.976 139.034 103.516C139.574 104.056 140.24 104.326 141.032 104.326C141.56 104.326 142.034 104.2 142.454 103.948C142.886 103.696 143.21 103.36 143.426 102.94L145.1 103.894C144.716 104.614 144.164 105.184 143.444 105.604C142.724 106.024 141.926 106.234 141.05 106.234ZM147.894 102.328C148.038 103.012 148.368 103.54 148.884 103.912C149.4 104.272 150.03 104.452 150.774 104.452C151.806 104.452 152.58 104.08 153.096 103.336L154.698 104.272C153.81 105.58 152.496 106.234 150.756 106.234C149.292 106.234 148.11 105.79 147.21 104.902C146.31 104.002 145.86 102.868 145.86 101.5C145.86 100.156 146.304 99.034 147.192 98.134C148.08 97.222 149.22 96.766 150.612 96.766C151.932 96.766 153.012 97.228 153.852 98.152C154.704 99.076 155.13 100.198 155.13 101.518C155.13 101.722 155.106 101.992 155.058 102.328H147.894ZM147.876 100.744H153.168C153.036 100.012 152.73 99.46 152.25 99.088C151.782 98.716 151.23 98.53 150.594 98.53C149.874 98.53 149.274 98.728 148.794 99.124C148.314 99.52 148.008 100.06 147.876 100.744Z" fill="#666666"/>
</svg>
