<svg width="138" height="115" viewBox="0 0 138 115" fill="none" xmlns="http://www.w3.org/2000/svg">
<path d="M49.65 23H58.05V72H48.39V33.22L39.15 35.81L36.77 27.55L49.65 23ZM64.9603 72V64.79L81.6903 47.57C85.4236 43.65 87.2903 40.3833 87.2903 37.77C87.2903 35.8567 86.6836 34.3167 85.4703 33.15C84.3036 31.9833 82.787 31.4 80.9203 31.4C77.2336 31.4 74.5036 33.3133 72.7303 37.14L64.6103 32.38C66.1503 29.02 68.367 26.4533 71.2603 24.68C74.1536 22.9067 77.327 22.02 80.7803 22.02C85.2136 22.02 89.017 23.42 92.1903 26.22C95.3636 28.9733 96.9503 32.7067 96.9503 37.42C96.9503 42.5067 94.267 47.7333 88.9003 53.1L79.3103 62.69H97.7203V72H64.9603Z" fill="#666666"/>
<path d="M8.82 93.4H10.89V106H9.27L3.33 97.45V106H1.26V93.4H2.88L8.82 101.95V93.4ZM20.4085 97H22.3525V106H20.4085V104.704C19.6765 105.724 18.6265 106.234 17.2585 106.234C16.0225 106.234 14.9665 105.778 14.0905 104.866C13.2145 103.942 12.7765 102.82 12.7765 101.5C12.7765 100.168 13.2145 99.046 14.0905 98.134C14.9665 97.222 16.0225 96.766 17.2585 96.766C18.6265 96.766 19.6765 97.27 20.4085 98.278V97ZM15.5305 103.57C16.0705 104.11 16.7485 104.38 17.5645 104.38C18.3805 104.38 19.0585 104.11 19.5985 103.57C20.1385 103.018 20.4085 102.328 20.4085 101.5C20.4085 100.672 20.1385 99.988 19.5985 99.448C19.0585 98.896 18.3805 98.62 17.5645 98.62C16.7485 98.62 16.0705 98.896 15.5305 99.448C14.9905 99.988 14.7205 100.672 14.7205 101.5C14.7205 102.328 14.9905 103.018 15.5305 103.57ZM29.6404 98.872H27.4084V103.192C27.4084 103.564 27.4924 103.834 27.6604 104.002C27.8284 104.158 28.0744 104.248 28.3984 104.272C28.7344 104.284 29.1484 104.278 29.6404 104.254V106C28.1524 106.18 27.0844 106.054 26.4364 105.622C25.7884 105.178 25.4644 104.368 25.4644 103.192V98.872H23.8084V97H25.4644V95.056L27.4084 94.48V97H29.6404V98.872ZM33.2395 95.29C32.9995 95.53 32.7115 95.65 32.3755 95.65C32.0395 95.65 31.7455 95.53 31.4935 95.29C31.2535 95.038 31.1335 94.744 31.1335 94.408C31.1335 94.072 31.2535 93.784 31.4935 93.544C31.7335 93.292 32.0275 93.166 32.3755 93.166C32.7235 93.166 33.0175 93.292 33.2575 93.544C33.4975 93.784 33.6175 94.072 33.6175 94.408C33.6175 94.744 33.4915 95.038 33.2395 95.29ZM31.4035 106V97H33.3475V106H31.4035ZM39.8527 106.234C38.5327 106.234 37.4107 105.778 36.4867 104.866C35.5627 103.954 35.1007 102.832 35.1007 101.5C35.1007 100.168 35.5627 99.046 36.4867 98.134C37.4107 97.222 38.5327 96.766 39.8527 96.766C41.1847 96.766 42.3067 97.222 43.2187 98.134C44.1427 99.046 44.6047 100.168 44.6047 101.5C44.6047 102.832 44.1427 103.954 43.2187 104.866C42.3067 105.778 41.1847 106.234 39.8527 106.234ZM37.8547 103.534C38.3947 104.074 39.0607 104.344 39.8527 104.344C40.6447 104.344 41.3107 104.074 41.8507 103.534C42.3907 102.994 42.6607 102.316 42.6607 101.5C42.6607 100.684 42.3907 100.006 41.8507 99.466C41.3107 98.926 40.6447 98.656 39.8527 98.656C39.0607 98.656 38.3947 98.926 37.8547 99.466C37.3147 100.006 37.0447 100.684 37.0447 101.5C37.0447 102.316 37.3147 102.994 37.8547 103.534ZM51.0965 96.766C52.1285 96.766 52.9625 97.096 53.5985 97.756C54.2345 98.416 54.5525 99.322 54.5525 100.474V106H52.6085V100.672C52.6085 100 52.4285 99.484 52.0685 99.124C51.7085 98.764 51.2165 98.584 50.5925 98.584C49.9085 98.584 49.3565 98.8 48.9365 99.232C48.5165 99.652 48.3065 100.3 48.3065 101.176V106H46.3625V97H48.3065V98.152C48.8945 97.228 49.8245 96.766 51.0965 96.766ZM63.7737 97H65.7177V106H63.7737V104.704C63.0417 105.724 61.9917 106.234 60.6237 106.234C59.3877 106.234 58.3317 105.778 57.4557 104.866C56.5797 103.942 56.1417 102.82 56.1417 101.5C56.1417 100.168 56.5797 99.046 57.4557 98.134C58.3317 97.222 59.3877 96.766 60.6237 96.766C61.9917 96.766 63.0417 97.27 63.7737 98.278V97ZM58.8957 103.57C59.4357 104.11 60.1137 104.38 60.9297 104.38C61.7457 104.38 62.4237 104.11 62.9637 103.57C63.5037 103.018 63.7737 102.328 63.7737 101.5C63.7737 100.672 63.5037 99.988 62.9637 99.448C62.4237 98.896 61.7457 98.62 60.9297 98.62C60.1137 98.62 59.4357 98.896 58.8957 99.448C58.3557 99.988 58.0857 100.672 58.0857 101.5C58.0857 102.328 58.3557 103.018 58.8957 103.57ZM67.9836 106V92.86H69.9276V106H67.9836ZM85.0188 106L84.1368 103.462H78.7728L77.8908 106H75.6408L80.2128 93.4H82.6968L87.2508 106H85.0188ZM79.4568 101.518H83.4528L81.4548 95.83L79.4568 101.518ZM98.4961 97H100.548L97.7221 106H95.8141L93.9421 99.934L92.0521 106H90.1441L87.3181 97H89.3701L91.1161 103.21L93.0061 97H94.8601L96.7321 103.21L98.4961 97ZM108.756 97H110.7V106H108.756V104.704C108.024 105.724 106.974 106.234 105.606 106.234C104.37 106.234 103.314 105.778 102.438 104.866C101.562 103.942 101.124 102.82 101.124 101.5C101.124 100.168 101.562 99.046 102.438 98.134C103.314 97.222 104.37 96.766 105.606 96.766C106.974 96.766 108.024 97.27 108.756 98.278V97ZM103.878 103.57C104.418 104.11 105.096 104.38 105.912 104.38C106.728 104.38 107.406 104.11 107.946 103.57C108.486 103.018 108.756 102.328 108.756 101.5C108.756 100.672 108.486 99.988 107.946 99.448C107.406 98.896 106.728 98.62 105.912 98.62C105.096 98.62 104.418 98.896 103.878 99.448C103.338 99.988 103.068 100.672 103.068 101.5C103.068 102.328 103.338 103.018 103.878 103.57ZM114.91 98.512C115.402 97.396 116.326 96.838 117.682 96.838V98.944C116.938 98.896 116.29 99.076 115.738 99.484C115.186 99.88 114.91 100.54 114.91 101.464V106H112.966V97H114.91V98.512ZM125.825 93.4H127.769V106H125.825V104.704C125.093 105.724 124.043 106.234 122.675 106.234C121.439 106.234 120.383 105.778 119.507 104.866C118.631 103.942 118.193 102.82 118.193 101.5C118.193 100.168 118.631 99.046 119.507 98.134C120.383 97.222 121.439 96.766 122.675 96.766C124.043 96.766 125.093 97.27 125.825 98.278V93.4ZM120.947 103.57C121.487 104.11 122.165 104.38 122.981 104.38C123.797 104.38 124.475 104.11 125.015 103.57C125.555 103.018 125.825 102.328 125.825 101.5C125.825 100.672 125.555 99.988 125.015 99.448C124.475 98.896 123.797 98.62 122.981 98.62C122.165 98.62 121.487 98.896 120.947 99.448C120.407 99.988 120.137 100.672 120.137 101.5C120.137 102.328 120.407 103.018 120.947 103.57ZM131.728 99.484C131.728 99.784 131.89 100.024 132.214 100.204C132.55 100.372 132.952 100.522 133.42 100.654C133.9 100.774 134.38 100.918 134.86 101.086C135.34 101.254 135.742 101.542 136.066 101.95C136.402 102.346 136.57 102.85 136.57 103.462C136.57 104.326 136.234 105.004 135.562 105.496C134.902 105.988 134.068 106.234 133.06 106.234C132.172 106.234 131.41 106.048 130.774 105.676C130.138 105.304 129.676 104.788 129.388 104.128L131.062 103.156C131.374 104.02 132.04 104.452 133.06 104.452C134.08 104.452 134.59 104.116 134.59 103.444C134.59 103.156 134.422 102.922 134.086 102.742C133.762 102.562 133.36 102.412 132.88 102.292C132.412 102.16 131.938 102.01 131.458 101.842C130.978 101.674 130.57 101.398 130.234 101.014C129.91 100.618 129.748 100.12 129.748 99.52C129.748 98.692 130.06 98.026 130.684 97.522C131.32 97.018 132.106 96.766 133.042 96.766C133.786 96.766 134.446 96.934 135.022 97.27C135.61 97.594 136.06 98.05 136.372 98.638L134.734 99.556C134.422 98.872 133.858 98.53 133.042 98.53C132.67 98.53 132.358 98.614 132.106 98.782C131.854 98.938 131.728 99.172 131.728 99.484Z" fill="#666666"/>
</svg>
